<?xml version="1.0" standalone="no"?>
<!DOCTYPE svg PUBLIC "-//W3C//DTD SVG 20010904//EN"
 "http://www.w3.org/TR/2001/REC-SVG-20010904/DTD/svg10.dtd">
<svg version="1.0" xmlns="http://www.w3.org/2000/svg"
 width="840.000000pt" height="880.000000pt" viewBox="0 0 840.000000 880.000000"
 preserveAspectRatio="xMidYMid meet">

<g transform="translate(0.000000,880.000000) scale(0.100000,-0.100000)"
fill="#000000" stroke="none">
<path d="M3888 8389 c-1185 -98 -2240 -692 -2937 -1656 -650 -898 -892 -2032
-670 -3137 249 -1239 1103 -2311 2258 -2836 921 -419 1967 -474 2926 -155
1191 396 2134 1339 2530 2530 222 666 264 1372 124 2069 -230 1143 -968 2140
-2006 2710 -491 269 -1044 431 -1622 476 -153 11 -459 11 -603 -1z m652 -370
c651 -57 1303 -308 1837 -708 794 -594 1310 -1485 1432 -2471 34 -272 32 -632
-4 -911 -213 -1631 -1503 -2921 -3134 -3134 -727 -95 -1459 32 -2116 365
-1081 548 -1815 1595 -1964 2800 -34 272 -32 632 4 911 181 1385 1147 2550
2472 2983 484 157 958 211 1473 165z"/>
<path d="M4285 6693 c-16 -2 -66 -13 -110 -24 -276 -70 -449 -254 -530 -564
-34 -132 -46 -261 -52 -597 l-6 -338 -229 0 -228 0 0 -385 0 -385 230 0 230 0
2 -1152 3 -1153 378 -3 377 -2 0 1155 0 1155 383 0 383 0 57 363 c32 199 57
372 57 385 l0 22 -441 0 -441 0 5 248 c5 269 12 312 66 392 31 47 94 93 150
112 24 7 151 13 374 15 l337 4 0 380 0 379 -482 -1 c-266 -1 -496 -4 -513 -6z"/>
</g>
</svg>
