<?xml version="1.0" standalone="no"?>
<!DOCTYPE svg PUBLIC "-//W3C//DTD SVG 20010904//EN"
 "http://www.w3.org/TR/2001/REC-SVG-20010904/DTD/svg10.dtd">
<svg version="1.0" xmlns="http://www.w3.org/2000/svg"
 width="920.000000pt" height="920.000000pt" viewBox="0 0 920.000000 920.000000"
 preserveAspectRatio="xMidYMid meet">

<g transform="translate(0.000000,920.000000) scale(0.100000,-0.100000)"
fill="#000000" stroke="none">
<path d="M3520 8519 c-643 -12 -905 -35 -1185 -103 -439 -107 -806 -322 -1086
-639 -295 -333 -462 -734 -528 -1272 -36 -290 -50 -984 -45 -2210 4 -971 18
-1446 49 -1640 47 -303 83 -444 167 -655 197 -496 612 -911 1108 -1108 495
-197 833 -222 2845 -216 1014 3 1493 17 1700 49 294 45 444 83 652 166 500
198 913 611 1111 1109 84 211 120 352 167 655 31 200 46 705 49 1705 6 2005
-19 2345 -216 2840 -197 496 -612 911 -1108 1108 -211 84 -360 122 -655 167
-72 11 -278 25 -510 35 -302 13 -2007 19 -2515 9z m2235 -710 c643 -13 887
-45 1156 -150 193 -75 322 -159 467 -307 80 -82 176 -211 220 -298 108 -212
168 -464 193 -809 36 -521 36 -2799 -1 -3301 -25 -337 -85 -587 -192 -798 -79
-157 -257 -356 -413 -462 -106 -73 -141 -90 -271 -143 -346 -137 -653 -158
-2314 -157 -1458 0 -1798 15 -2110 92 -102 26 -260 83 -344 126 -87 44 -216
140 -298 220 -276 271 -398 587 -439 1128 -37 508 -37 2777 1 3305 20 280 58
468 131 656 72 186 158 318 294 454 136 136 268 222 454 294 267 104 514 136
1146 150 423 10 1878 10 2320 0z"/>
<path d="M6594 7155 c-185 -40 -334 -199 -364 -390 -49 -304 227 -582 530
-535 184 29 334 157 386 329 52 172 2 356 -128 477 -72 66 -138 101 -227 120
-80 17 -117 17 -197 -1z"/>
<path d="M4485 6613 c-133 -6 -302 -35 -450 -78 -712 -206 -1264 -805 -1410
-1530 -52 -258 -52 -550 0 -810 156 -781 790 -1414 1570 -1570 254 -50 560
-50 810 0 783 158 1412 787 1570 1570 51 253 51 554 0 810 -156 781 -789 1414
-1570 1570 -157 31 -352 45 -520 38z m253 -714 c464 -50 854 -331 1054 -760
75 -160 112 -337 112 -539 0 -265 -67 -493 -208 -713 -154 -241 -419 -444
-692 -530 -151 -47 -239 -61 -404 -61 -165 0 -253 14 -404 61 -397 125 -722
455 -844 858 -44 143 -56 231 -56 390 1 249 55 449 181 663 255 436 756 687
1261 631z"/>
</g>
</svg>
