<?xml version="1.0" standalone="no"?>
<!DOCTYPE svg PUBLIC "-//W3C//DTD SVG 20010904//EN"
 "http://www.w3.org/TR/2001/REC-SVG-20010904/DTD/svg10.dtd">
<svg version="1.0" xmlns="http://www.w3.org/2000/svg"
 width="840.000000pt" height="639.000000pt" viewBox="0 0 840.000000 639.000000"
 preserveAspectRatio="xMidYMid meet">

<g transform="translate(0.000000,639.000000) scale(0.100000,-0.100000)"
fill="#000000" stroke="none">
<path d="M1372 5979 c-519 -50 -965 -413 -1116 -910 -57 -188 -56 -140 -56
-1929 0 -1383 2 -1660 15 -1740 44 -290 175 -542 387 -746 175 -168 383 -278
636 -336 l97 -22 2785 -4 c2046 -2 2816 0 2900 8 272 28 507 127 716 302 217
183 379 459 435 743 12 58 14 367 14 1810 l0 1740 -32 120 c-145 536 -593 915
-1143 964 -137 13 -5509 13 -5638 0z m5692 -574 c79 -18 188 -64 180 -76 -2
-5 -116 -113 -252 -240 -136 -128 -281 -264 -322 -303 -42 -39 -244 -229 -450
-422 -206 -193 -631 -590 -944 -882 -312 -293 -588 -546 -612 -563 -250 -172
-560 -194 -829 -60 -116 58 -126 66 -530 445 -165 155 -583 547 -930 871 -346
324 -767 718 -934 875 l-304 285 54 23 c30 13 86 32 124 42 67 18 182 19 2877
19 2472 1 2815 -1 2872 -14z m-5946 -822 c174 -163 349 -326 387 -363 39 -36
312 -292 608 -569 296 -277 536 -508 534 -515 -2 -6 -367 -352 -813 -769 -445
-417 -860 -806 -922 -864 -66 -62 -117 -102 -122 -97 -27 27 -30 189 -30 1734
0 1609 3 1740 36 1740 3 0 148 -133 322 -297z m6499 250 c4 -27 8 -788 8
-1693 0 -905 -4 -1666 -8 -1692 -5 -27 -12 -48 -18 -48 -5 0 -87 73 -182 162
-95 90 -445 418 -777 729 -333 311 -671 627 -752 703 -82 76 -148 142 -148
146 0 4 93 95 208 202 114 107 320 299 457 428 655 612 853 797 1013 947 95
90 177 163 182 163 5 0 12 -21 17 -47z m-4426 -2190 c154 -144 263 -223 394
-287 219 -108 430 -153 665 -142 364 16 635 136 935 415 72 67 133 121 137
121 4 0 117 -103 250 -228 134 -125 565 -529 958 -897 393 -367 716 -671 718
-675 4 -11 -114 -58 -188 -75 -57 -13 -421 -15 -2866 -15 -2720 0 -2803 1
-2875 19 -41 10 -98 30 -128 43 l-54 24 454 425 c250 234 636 596 859 804 223
208 452 423 509 477 57 54 107 98 111 98 3 0 58 -48 121 -107z"/>
</g>
</svg>
