<?xml version="1.0" standalone="no"?>
<!DOCTYPE svg PUBLIC "-//W3C//DTD SVG 20010904//EN"
 "http://www.w3.org/TR/2001/REC-SVG-20010904/DTD/svg10.dtd">
<svg version="1.0" xmlns="http://www.w3.org/2000/svg"
 width="920.000000pt" height="512.000000pt" viewBox="0 0 920.000000 512.000000"
 preserveAspectRatio="xMidYMid meet">

<g transform="translate(0.000000,512.000000) scale(0.100000,-0.100000)"
fill="#000000" stroke="none">
<path d="M3200 5062 c-66 -27 -115 -60 -215 -148 -49 -44 -129 -112 -177 -152
-151 -127 -290 -309 -379 -496 -173 -364 -202 -794 -84 -1241 145 -550 504
-1138 1086 -1780 530 -585 1096 -982 1611 -1130 203 -59 279 -69 518 -70 188
0 228 3 323 23 178 38 331 98 484 189 97 57 142 91 278 211 204 180 264 242
297 309 28 58 30 68 26 145 -4 68 -10 94 -36 144 -65 129 -181 249 -476 497
-247 207 -427 297 -591 297 -170 -1 -267 -59 -544 -325 -152 -146 -209 -181
-309 -191 -251 -27 -605 224 -1033 731 -392 466 -547 819 -457 1042 34 83 70
124 173 201 114 83 303 249 344 301 17 21 46 70 63 108 85 182 30 418 -177
749 -212 339 -345 499 -467 565 -79 41 -186 50 -258 21z"/>
</g>
</svg>
