<?xml version="1.0" standalone="no"?>
<!DOCTYPE svg PUBLIC "-//W3C//DTD SVG 20010904//EN"
 "http://www.w3.org/TR/2001/REC-SVG-20010904/DTD/svg10.dtd">
<svg version="1.0" xmlns="http://www.w3.org/2000/svg"
 width="900.000000pt" height="900.000000pt" viewBox="0 0 900.000000 900.000000"
 preserveAspectRatio="xMidYMid meet">

<g transform="translate(0.000000,900.000000) scale(0.100000,-0.100000)"
fill="#000000" stroke="none">
<path d="M4204 8400 c-611 -45 -1141 -283 -1582 -714 -169 -165 -270 -284
-384 -455 -197 -297 -322 -624 -380 -996 -18 -117 -22 -183 -22 -405 0 -284
10 -393 59 -595 36 -153 66 -225 287 -695 113 -239 336 -712 496 -1050 159
-338 384 -815 500 -1060 115 -245 303 -643 417 -885 256 -543 276 -583 334
-647 100 -111 271 -193 430 -205 222 -16 462 102 580 286 17 25 160 323 319
661 159 338 556 1182 882 1875 326 693 618 1316 650 1385 140 302 187 572 177
1008 -5 237 -20 359 -63 542 -133 566 -475 1077 -974 1455 -360 273 -748 428
-1215 484 -120 15 -386 20 -511 11z m366 -1290 c193 -24 396 -101 557 -212 93
-64 250 -217 321 -313 105 -140 193 -355 224 -539 20 -119 14 -355 -11 -473
-54 -259 -160 -452 -351 -643 -122 -122 -219 -192 -363 -260 -217 -104 -463
-141 -722 -109 -468 57 -891 408 -1044 865 -82 245 -82 569 0 818 129 389 478
723 866 830 154 42 357 56 523 36z"/>
</g>
</svg>
