<?xml version="1.0" standalone="no"?>
<!DOCTYPE svg PUBLIC "-//W3C//DTD SVG 20010904//EN"
 "http://www.w3.org/TR/2001/REC-SVG-20010904/DTD/svg10.dtd">
<svg version="1.0" xmlns="http://www.w3.org/2000/svg"
 width="860.000000pt" height="899.000000pt" viewBox="0 0 860.000000 899.000000"
 preserveAspectRatio="xMidYMid meet">

<g transform="translate(0.000000,899.000000) scale(0.100000,-0.100000)"
fill="#000000" stroke="none">
<path d="M4135 8579 c-714 -36 -1412 -269 -2010 -673 -1297 -875 -1949 -2417
-1669 -3946 81 -440 246 -884 470 -1267 30 -50 54 -96 54 -101 0 -6 -151 -455
-335 -998 -184 -544 -334 -991 -333 -995 2 -3 470 142 1041 323 l1038 330 137
-70 c1130 -578 2465 -586 3597 -19 842 420 1527 1157 1882 2021 136 330 224
672 269 1046 23 182 26 645 6 825 -98 886 -468 1681 -1076 2312 -635 659
-1459 1072 -2368 1188 -117 15 -453 36 -523 33 -16 0 -97 -4 -180 -9z m655
-444 c800 -109 1498 -452 2055 -1010 555 -554 894 -1242 1000 -2025 22 -160
31 -543 16 -710 -62 -712 -313 -1344 -753 -1897 -201 -253 -508 -537 -778
-719 -498 -337 -1069 -540 -1669 -594 -192 -18 -625 -8 -801 19 -484 72 -913
221 -1301 451 -56 33 -106 60 -113 60 -7 0 -330 -101 -717 -224 -387 -122
-714 -226 -726 -230 -20 -7 -4 48 168 556 105 310 213 627 239 705 l48 141
-63 94 c-292 438 -475 931 -551 1493 -22 163 -26 623 -6 790 40 337 125 668
246 960 52 125 189 390 266 513 421 674 1091 1205 1846 1462 255 87 572 155
829 179 148 14 627 5 765 -14z"/>
<path d="M2872 6364 c-85 -42 -220 -202 -291 -344 -77 -152 -105 -274 -105
-460 0 -112 5 -153 27 -242 58 -235 164 -451 348 -710 253 -358 379 -510 608
-738 389 -388 717 -601 1206 -783 345 -129 582 -199 725 -213 69 -7 147 4 315
42 84 19 266 112 354 181 93 72 152 144 181 220 31 82 60 227 60 303 l0 66
-117 56 c-65 31 -235 112 -378 181 -232 111 -361 167 -383 167 -5 0 -30 -30
-58 -67 -60 -84 -174 -222 -268 -327 -129 -144 -204 -157 -402 -71 -416 181
-702 379 -988 685 -130 140 -298 367 -384 521 -61 107 -53 199 27 293 25 30
83 99 129 153 46 54 97 126 114 160 l30 62 -100 238 c-55 131 -133 317 -173
413 -39 96 -83 190 -96 208 l-24 32 -153 0 c-144 0 -155 -1 -204 -26z"/>
</g>
</svg>
